#!OML:ASF F:\VICON\USERDATA\INSTALL\rory3\rory3.ASF
:FULLY-SPECIFIED
:DEGREES
10
root 0.9926691298469745 17.921052199869766 -9.007334783798392 -3.0937482177276454 -6.5255016702412725 -1.7296700098763935
lfemur -19.9203781550501 -3.8557422203168943 -21.338793401012857
ltibia 29.30789125637899
lfoot -3.9912336043069034 -0.8563887506115266
ltoes 2.4264273215337298
rfemur -1.4147268321191735 3.439355542239324 24.34429836277692
rtibia 58.96423530079698
rfoot 22.899633024849024 5.829303826886705
rtoes 9.411618750941532
lowerback 11.30544694671546 2.4546285666913894 2.6051314669437495
upperback -0.00284072971457619 3.6440046810181284 0.5714104937357533
thorax -6.227152357017443 1.7145801521775976 -1.4658337765635854
lowerneck -15.62793638391135 -3.353926254494874 -1.2264223019190685
upperneck 22.650601696264474 -4.2770568482699804 -0.4288084492173383
head 9.772627000791683 -2.1385387373188247 -0.49747844757533616
lclavicle 1.4734894426444113e-16 2.372895763718394e-16
lhumerus -38.85186480334016 12.308316211903598 77.318257974605
lradius 20.103739450121374
lwrist 0.08765121029720024
lhand -24.62931375228901 21.039568810291577
lfingers 7.12502
lthumb 1.8695748014355493 51.01060077003037
rclavicle 1.4734894426444113e-16 2.372895763718394e-16
rhumerus -24.719662129462 -15.08930135642077 -81.31061148881143
rradius 30.197397864161506
rwrist 0.8645127037540883
rhand -18.445250888270376 23.904556523948983
rfingers 7.12502
rthumb 7.840636959349955 -5.930451383989964
11
root 1.0073381346039494 17.98404408287224 -8.060454154182054 -3.786639703933541 -6.286772245240025 -0.18402864151214837
lfemur -15.800322862554212 -4.735675359059009 -23.914188336204212
ltibia 29.324032374255438
lfoot -6.0488832629880935 1.317454472941364
ltoes 1.6025860926456152
rfemur -8.637895811957067 1.7697939808345196 21.81415153249211
rtibia 69.15603127212835
rfoot 15.477076791081512 0.512965034821935
rtoes 11.359512437521827
lowerback 11.242365101261298 2.262841603623431 1.1080674254469942
upperback 0.4259124993639608 3.1716178256987857 0.3746468617241764
thorax -5.832470231856185 1.5319969176981405 -0.7448025758772099
lowerneck -15.998479061296667 -2.913181304920612 -1.141762329940231
upperneck 22.722747687513927 -3.6512121551309233 -0.536182444906919
head 9.86256397844645 -1.8512754924341845 -0.47569511163768036
lclavicle 1.4734883295832905e-16 2.3728955366991054e-16
lhumerus -37.04813034934187 9.969328012491601 78.81852128461477
lradius 21.599780630272832
lwrist 3.651369200410028
lhand -25.599161513525306 18.848541473757106
lfingers 7.12502
lthumb 0.9329313736553793 48.825059390591576
rclavicle 1.4734883295832905e-16 2.3728955366991054e-16
rhumerus -24.603851596291708 -16.98071127610316 -80.82378979353395
rradius 26.89557013997656
rwrist 3.641873508388346
rhand -18.146202477333713 26.290398631675895
rfingers 7.12502
rthumb 8.129220840256846 -3.530597700088271
12
root 0.9980559525784248 18.0125762912696 -7.166080941050108 -4.4748845435399875 -5.398358232339058 0.45427127614846863
lfemur -11.69149359288229 -5.266588338258059 -25.303277626619774
ltibia 28.54358230480486
lfoot -8.661941818461305 2.0599696881353706
ltoes 0.1154402582039653
rfemur -14.874188670989392 -0.2762784854518192 20.69247082405694
rtibia 74.28908648994178
rfoot 4.626647917309594 -4.061731787423895
rtoes 8.281090895147994
lowerback 11.547893100507007 1.7353274617951442 0.5183429670455707
upperback 0.6830882172380097 2.3958589142736773 0.4004998078933405
thorax -5.77753351634254 1.1676237985949414 -0.26827853583164296
lowerneck -15.991290744799935 -2.791478737657773 -1.0749328251142767
upperneck 22.920094113516328 -3.3667691105286015 -1.0678944079953636
head 9.918674926665767 -1.7762377558612783 -0.6373057253414498
lclavicle 1.4734889583251873e-16 2.3728954731333104e-16
lhumerus -34.977253952263446 9.401460271494468 78.96482267289954
lradius 22.51240165883445
lwrist 3.575192722369043
lhand -25.825778794538135 19.819492092126872
lfingers 7.12502
lthumb 0.7139889274415283 49.7966625931517
rclavicle 1.4734889583251873e-16 2.3728954731333104e-16
rhumerus -25.148169660571128 -19.654866513788242 -80.28384396559571
rradius 25.449246784585075
rwrist 6.4050924278584525
rhand -17.301738403450134 18.743147730292442
rfingers 7.12502
rthumb 8.944180729492883 -11.049196299721752
13
root 0.96926766629036 18.030157767529555 -6.3060267435055835 -4.669921070303963 -3.827133471916193 0.8835245926165542
lfemur -7.720571103340192 -5.053291042511714 -26.39379051669967
ltibia 27.849018824322485
lfoot -11.478205917556984 2.1561719139174214
ltoes 6.279006082632462
rfemur -20.940065932976808 -1.4509360614572175 20.23463185484062
rtibia 74.23297753241107
rfoot -1.9383901094161553 -6.050443249431105
rtoes 8.510948886507098
lowerback 11.708791799467566 0.9296751018586449 -0.030389753534483033
upperback 0.646531056915808 1.2643188153383809 0.5550117593028575
thorax -5.9286678364326235 0.6280001135394429 0.3850057472465017
lowerneck -16.089465355628988 -2.7025225952647722 -1.5538074832232542
upperneck 23.455160072538938 -3.159207741142242 -0.8828188170520912
head 10.141623790597647 -1.7018223228345806 -0.47314276294743024
lclavicle 1.4734887362785463e-16 2.3728958847955066e-16
lhumerus -32.670203123216105 6.843747354841128 79.95397986180802
lradius 23.81096205915099
lwrist 4.547141987359132
lhand -25.456099245694368 25.081125935749746
lfingers 7.12502
lthumb 1.071024191172952 55.05702982659657
rclavicle 1.4734887362785463e-16 2.3728958847955066e-16
rhumerus -26.659407752155314 -22.885954006782278 -78.75074593047357
rradius 23.991272288004517
rwrist 7.424938716929114
rhand -15.571977547478646 16.099586545511066
rfingers 7.12502
rthumb 10.613043864980082 -13.610730488119184
14
root 0.9283323612921913 17.976710102204184 -5.4595431905239735 -4.535312850956436 -2.650788464227829 1.457764447384945
lfemur -4.838998163267823 -5.277333645929774 -27.402109984094764
ltibia 27.49341727670746
lfoot -13.37649507623556 2.1740297160219857
ltoes 5.76911037839624
rfemur -26.242461670626366 -1.7661003814027065 19.85827528664262
rtibia 69.66492563949315
rfoot -8.23027738379687 -6.873952319783083
rtoes -1.6851449665893123
lowerback 11.792834503208505 0.3552572010217555 -0.9099806653552984
upperback 0.5727599217651828 0.3943043950577277 0.7175184358338917
thorax -6.053383903598202 0.22801543027105114 1.197512433177149
lowerneck -15.982231494926806 -2.5828529208303874 -1.5351809184824852
upperneck 23.073630441873153 -2.9380743086620447 -1.1224567193520314
head 9.980357113433277 -1.6265838374158081 -0.5245599207351714
lclavicle 1.4734889596783372e-16 2.372895902956939e-16
lhumerus -29.94740841662592 4.222611309308216 80.65223191109295
lradius 24.503948654292476
lwrist 4.394979329183569
lhand -25.54159020865 26.251132512307837
lfingers 7.12502
lthumb 0.9885228581479308 56.22731008225498
rclavicle 1.4734889596783372e-16 2.372895902956939e-16
rhumerus -28.470330929591288 -22.99706082376456 -78.05452892251759
rradius 24.049627200369635
rwrist 5.570268727830137
rhand -17.355300750403927 23.71467468024408
rfingers 7.12502
rthumb 8.89254685584715 -6.075372094004704
15
root 0.8736776745340193 17.908895871498466 -4.602030277193638 -4.391659868134768 -1.543229142492541 2.220741160178793
lfemur -1.310402665102707 -4.367148736807781 -28.3688330373773
ltibia 26.904268530934523
lfoot -16.87609888423002 1.6764218027691742
ltoes 3.742913305914045
rfemur -29.684036421861364 -1.7921667286648333 19.193335429649842
rtibia 61.14634114912509
rfoot -10.269753645798712 -9.029795282211122
rtoes -0.7117534157015091
lowerback 11.857513292086901 -0.18696231075207953 -2.144275540022731
upperback 0.42335741719030895 -0.48219586964030614 0.9004221700095867
thorax -6.210514062516472 -0.16125555891734794 2.2379208449540444
lowerneck -15.216627038154398 -2.599005819865322 -2.0369677179886345
upperneck 22.236515868498664 -2.914430680401186 -0.8537668122738344
head 9.553973716163325 -1.627888669406862 -0.32215317938204424
lclavicle 1.4734890932754663e-16 2.372895872687781e-16
lhumerus -27.673234822260472 1.9501163768609429 81.03521201806016
lradius 26.019136286321192
lwrist 4.744070716255064
lhand -25.995945393224616 25.5333624144413
lfingers 7.12502
lthumb 0.5496158862882654 55.511054332319354
rclavicle 1.4734890932754663e-16 2.372895872687781e-16
rhumerus -30.465529523293526 -22.28221915363398 -77.29798446269942
rradius 24.584679130227578
rwrist 5.202321718526546
rhand -17.61136217210544 24.103140791208304
rfingers 7.12502
rthumb 8.645413047732829 -5.697690516176683
16
root 0.8069378691440328 17.930094099227762 -3.7337881459976003 -3.537393810096038 -0.5994286482852358 2.611331321622947
lfemur 3.1366071158270117 -3.552721428020687 -28.51072157991907
ltibia 22.47295065119443
lfoot -17.718258812856096 0.21537963809663463
ltoes 3.936472574570181
rfemur -31.248359703642357 -0.9194524224881313 18.72091754905574
rtibia 47.33557032062133
rfoot -8.736241241185086 -10.536262241073185
rtoes -4.954413725451857
lowerback 11.392184566913551 -0.4560973264167794 -2.8649704646977803
upperback 0.5561067955543937 -0.9233662012167463 0.9039073650007217
thorax -5.7716796820233816 -0.3664234515706236 2.7130571384633773
lowerneck -16.799138814372107 -2.668734696433297 -1.6836626256230893
upperneck 22.32936109274889 -3.1078799436415983 -0.6924148035343018
head 9.883503429311448 -1.6653473123865516 -0.3764306927508045
lclavicle 1.473489034227055e-16 2.372895812149156e-16
lhumerus -24.719795385425694 -0.4959191182056619 81.00225671391964
lradius 28.117142319990414
lwrist 6.889406652579865
lhand -24.974334176434247 32.37263767606567
lfingers 7.12502
lthumb 1.5363332173382636 62.3459398799537
rclavicle 1.473489034227055e-16 2.372895812149156e-16
rhumerus -31.43375059614262 -23.183171269435213 -76.67870249715125
rradius 24.587865841729126
rwrist 5.354757208671917
rhand -17.68372522885148 23.766260467393504
rfingers 7.12502
rthumb 8.575526603510015 -6.037969138028812
